<svg width="350" height="109" viewBox="0 0 350 109" fill="none" xmlns="http://www.w3.org/2000/svg">
<g clip-path="url(#clip0_1661_18347)">
<mask id="mask0_1661_18347" style="mask-type:luminance" maskUnits="userSpaceOnUse" x="0" y="0" width="368" height="109">
<path d="M368 0H0V109H368V0Z" fill="white"/>
</mask>
<g mask="url(#mask0_1661_18347)">
<path d="M22.5844 84.1312H7.93565C5.2653 84.1312 3.05273 81.9187 3.05273 79.2483V40.1849C3.05273 37.5146 5.2653 35.302 7.93565 35.302H22.5844C36.0888 35.302 46.9991 46.2123 46.9991 59.7166C46.9991 73.221 36.0888 84.1312 22.5844 84.1312ZM22.5844 45.0679H12.8186V74.3654H22.5844C30.6718 74.3654 37.2332 67.804 37.2332 59.7166C37.2332 51.6293 30.6718 45.0679 22.5844 45.0679Z" fill="white"/>
<path fill-rule="evenodd" clip-rule="evenodd" d="M4 44H40.1485V75.6995H23.9205C23.9237 73.1431 23.4736 70.174 23.0847 68.3265C22.3732 64.947 20.7081 63.3907 20.7081 63.3907L19.6162 61.1228C19.5273 60.3669 20.2032 58.8817 23.6183 58.9884C27.0333 59.0951 28.7765 57.521 29.2211 56.7206C29.8546 56.3586 30.3653 54.8917 30.6699 53.6523C30.8143 53.0647 30.9125 52.5282 30.9554 52.1849C31.0621 51.3311 30.6441 51.0288 30.4218 50.9843C29.7515 51.0015 28.7743 50.9894 27.7537 50.9127C26.5547 50.8226 25.2956 50.6433 24.4036 50.3173C24.0904 50.2028 23.8225 50.0702 23.6183 49.9171C23.45 49.7909 23.2582 49.6367 23.0423 49.4632C21.2042 47.9858 17.6232 45.1074 12.0123 46.1818C6.99638 47.1423 5.4756 51.5624 5.3422 53.6523L4.82572 59.6874C4.82572 60.4879 4.75523 61.5497 4.54178 62.19C4.52731 62.2335 4.50929 62.2891 4.48766 62.3559L4.48723 62.3572L4.48688 62.3583C4.3936 62.6463 4.23352 63.1407 4 63.7634V44ZM4 75.5396V75.6995H4.31535C4.20909 75.6463 4.10395 75.593 4 75.5396Z" fill="white"/>
<mask id="mask1_1661_18347" style="mask-type:luminance" maskUnits="userSpaceOnUse" x="48" y="-1" width="320" height="110">
<path d="M367.811 -0.00195312H48.3828V109H367.811V-0.00195312Z" fill="white"/>
</mask>
<g mask="url(#mask1_1661_18347)">
<path d="M74.7712 82.9971C62.6961 82.9971 51.9805 72.9211 51.9805 60.2063C51.9805 48.0512 62.1364 37.4155 74.8512 37.4155C80.289 37.4155 87.726 39.2546 87.726 44.9324C87.726 48.211 84.9271 51.2499 81.4885 51.2499C79.3294 51.2499 77.1703 49.8105 74.8512 49.8105C69.0136 49.8105 64.4554 54.6885 64.4554 60.2063C64.4554 65.964 69.2535 70.5221 74.7712 70.5221C80.449 70.5221 85.247 65.964 85.247 60.2063V57.8072C85.247 54.3685 87.9659 51.5698 91.4045 51.5698C93.8835 51.5698 96.1226 53.0091 97.1622 55.2482C97.4821 56.8475 97.722 58.5269 97.722 60.1262C97.722 72.7612 87.2462 82.9971 74.7712 82.9971ZM127.639 103.709C119.162 103.709 110.845 101.23 103.728 96.5916C101.889 95.3921 100.929 93.3929 100.929 91.3937C100.929 88.115 103.728 85.1562 107.167 85.1562C108.366 85.1562 109.566 85.4761 110.605 86.1958C115.643 89.4745 121.561 91.2337 127.639 91.2337C144.832 91.2337 158.746 77.3194 158.746 60.1262C158.746 47.5713 168.982 37.3354 181.537 37.3354C187.854 37.3354 193.852 39.8944 198.17 44.4525C202.648 39.7345 208.726 37.3354 214.803 37.3354C220.401 37.3354 225.999 39.4147 230.397 43.573C235.035 47.8913 237.594 53.8887 237.594 60.1262V76.7596C237.594 80.1982 234.795 82.9971 231.357 82.9971C227.918 82.9971 225.119 80.1982 225.119 76.7596V60.1262C225.119 54.4485 220.481 49.7304 214.803 49.7304C209.046 49.7304 204.407 54.4485 204.407 60.1262V76.7596C204.407 80.1982 201.609 82.9971 198.17 82.9971C194.731 82.9971 191.933 80.1982 191.933 76.7596V60.1262C191.933 54.4485 187.294 49.7304 181.537 49.7304C175.859 49.7304 171.221 54.4485 171.221 60.1262C171.221 84.1965 151.709 103.709 127.639 103.709ZM328.67 95.472H328.51C319.473 95.472 312.036 88.115 311.957 78.9987V60.2063C311.957 54.4486 307.318 49.8105 301.641 49.8105C295.883 49.8105 291.245 54.4486 291.245 60.2063V76.7596C291.245 80.1982 288.446 82.9971 285.007 82.9971C281.569 82.9971 278.77 80.1982 278.77 76.7596V60.2063C278.77 54.4486 274.132 49.8105 268.374 49.8105C262.696 49.8105 258.058 54.4486 258.058 60.2063V76.7596C258.058 80.1982 255.259 82.9971 251.821 82.9971C248.382 82.9971 245.583 80.1982 245.583 76.7596V60.2063C245.583 53.8888 248.142 47.8913 252.78 43.573C257.179 39.4147 262.776 37.3354 268.374 37.3354C274.452 37.3354 280.529 39.7346 285.007 44.5326C289.326 39.9745 295.323 37.4155 301.641 37.4155C314.196 37.4155 324.431 47.5714 324.431 60.2063V78.9987C324.431 81.3177 326.271 82.9971 328.67 82.9971C330.909 82.9971 332.668 81.1578 332.748 78.9187V47.7313C332.748 44.2927 335.547 41.4938 338.986 41.4938C342.424 41.4938 345.143 44.2927 345.143 47.7313V78.9187C345.143 87.9551 337.786 95.3921 328.67 95.472Z" fill="white"/>
<path d="M101.063 84.6691C99.1486 85.7418 98.425 87.5319 98.2817 89.2071C98.2276 89.8383 97.2356 90.2443 96.9317 89.6884C95.966 87.9221 95.9881 86.6438 96.6085 85.4632C97.25 84.2247 97.7901 82.9184 100.966 83.1971C101.609 83.2535 101.626 84.3533 101.063 84.6691Z" fill="white" stroke="white" stroke-width="0.582897"/>
<path d="M341.532 38.0186C339.561 37.0549 337.677 37.4784 336.218 38.3136C335.668 38.6283 334.77 38.0436 335.054 37.4774C335.957 35.6782 337.021 34.969 338.345 34.8074C339.728 34.6303 341.11 34.3312 342.687 37.1013C343.007 37.6626 342.112 38.3024 341.532 38.0186Z" fill="white" stroke="white" stroke-width="0.582897"/>
<path d="M96.6738 82.5951C95.3871 83.3162 94.9007 84.5196 94.8043 85.6456C94.768 86.0699 94.1012 86.3429 93.8969 85.9692C93.2477 84.7819 93.2626 83.9225 93.6796 83.1288C94.1109 82.2963 94.4739 81.4183 96.6086 81.6056C97.0412 81.6436 97.0526 82.3828 96.6738 82.5951Z" fill="white" stroke="white" stroke-width="0.391831"/>
<path d="M340.738 33.2309C339.413 32.583 338.147 32.8677 337.166 33.4292C336.797 33.6407 336.193 33.2476 336.384 32.867C336.991 31.6576 337.706 31.1809 338.596 31.0722C339.526 30.9532 340.454 30.7521 341.515 32.6142C341.73 32.9915 341.129 33.4216 340.738 33.2309Z" fill="white" stroke="white" stroke-width="0.391831"/>
</g>
</g>
<g clip-path="url(#clip1_1661_18347)">
<path d="M-11.8812 82.8252C-23.9563 82.8252 -34.6719 72.7492 -34.6719 60.0344C-34.6719 47.8793 -24.516 37.2436 -11.8012 37.2436C-6.36338 37.2436 1.07362 39.0828 1.07362 44.7606C1.07362 48.0392 -1.72527 51.078 -5.16387 51.078C-7.32297 51.078 -9.48208 49.6386 -11.8012 49.6386C-17.6388 49.6386 -22.197 54.5166 -22.197 60.0344C-22.197 65.7921 -17.3989 70.3502 -11.8812 70.3502C-6.20337 70.3502 -1.40537 65.7921 -1.40537 60.0344V57.6354C-1.40537 54.1967 1.31353 51.3979 4.75213 51.3979C7.23113 51.3979 9.47023 52.8373 10.5098 55.0764C10.8297 56.6757 11.0696 58.3551 11.0696 59.9544C11.0696 72.5893 0.593826 82.8252 -11.8812 82.8252ZM40.9867 103.537C32.5097 103.537 24.1927 101.058 17.0757 96.4197C15.2367 95.2202 14.2767 93.221 14.2767 91.2218C14.2767 87.9431 17.0757 84.9843 20.5147 84.9843C21.7137 84.9843 22.9137 85.3042 23.9527 86.0239C28.9907 89.3026 34.9087 91.0618 40.9867 91.0618C58.1797 91.0618 72.0937 77.1475 72.0937 59.9544C72.0937 47.3995 82.3297 37.1636 94.8847 37.1636C101.202 37.1636 107.2 39.7226 111.518 44.2807C115.996 39.5627 122.074 37.1636 128.151 37.1636C133.749 37.1636 139.347 39.2428 143.745 43.4011C148.383 47.7194 150.942 53.7169 150.942 59.9544V76.5877C150.942 80.0263 148.143 82.8252 144.705 82.8252C141.266 82.8252 138.467 80.0263 138.467 76.5877V59.9544C138.467 54.2767 133.829 49.5586 128.151 49.5586C122.394 49.5586 117.755 54.2767 117.755 59.9544V76.5877C117.755 80.0263 114.957 82.8252 111.518 82.8252C108.079 82.8252 105.281 80.0263 105.281 76.5877V59.9544C105.281 54.2767 100.642 49.5586 94.8847 49.5586C89.2067 49.5586 84.5687 54.2767 84.5687 59.9544C84.5687 84.0247 65.0567 103.537 40.9867 103.537ZM40.9067 82.8252C28.8307 82.8252 18.1157 72.7492 18.1157 60.0344C18.1157 47.8793 28.2717 37.2436 40.9067 37.2436C46.4237 37.2436 53.8607 39.0828 53.8607 44.7606C53.8607 48.0392 51.0617 51.078 47.6237 51.078C45.4647 51.078 43.3057 49.6386 40.9067 49.6386C35.1487 49.6386 30.5907 54.5966 30.5907 60.0344C30.5907 65.7921 35.3887 70.4302 40.9067 70.4302C46.5837 70.4302 51.3817 65.7921 51.3817 60.0344V57.6354C51.3817 54.1967 54.1007 51.3979 57.5397 51.3979C60.0187 51.3979 62.2577 52.8373 63.2977 55.0764C63.6167 56.6757 63.8567 58.3551 63.8567 59.9544C63.8567 72.6693 53.3817 82.8252 40.9067 82.8252ZM252.334 37.2436C248.895 37.2436 246.096 34.4447 246.096 31.0061C246.096 27.5675 248.895 24.7686 252.334 24.7686C255.772 24.7686 258.491 27.5675 258.491 31.0061C258.491 34.4447 255.772 37.2436 252.334 37.2436ZM242.018 95.3001H241.858C232.821 95.3001 225.079 86.6163 225 77.5L225.305 60.0344C225.305 54.2767 220.666 49.6386 214.989 49.6386C209.231 49.6386 204.593 54.2767 204.593 60.0344V76.5877C204.593 80.0263 201.794 82.8252 198.355 82.8252C194.917 82.8252 192.118 80.0263 192.118 76.5877V60.0344C192.118 54.2767 187.48 49.6386 181.722 49.6386C176.044 49.6386 171.406 54.2767 171.406 60.0344V76.5877C171.406 80.0263 168.607 82.8252 165.169 82.8252C161.73 82.8252 158.931 80.0263 158.931 76.5877V60.0344C158.931 53.7169 161.49 47.7194 166.128 43.4011C170.527 39.2428 176.124 37.1636 181.722 37.1636C187.8 37.1636 193.877 39.5627 198.355 44.3607C202.674 39.8026 208.671 37.2436 214.989 37.2436C227.544 37.2436 237 47.5 237.779 60.0344V78.8268C237.779 81.1458 239.619 82.8252 242.018 82.8252C244.257 82.8252 245.42 79.7391 245.5 77.5L247.5 51.5C247.5 48.0614 248.895 41.3219 252.334 41.3219C255.772 41.3219 257 49.5614 257 53L258 77C258 86.0364 251.134 95.2202 242.018 95.3001Z" fill="white"/>
</g>
<path d="M75 37C87.7025 37 98 47.2975 98 60C98 72.7025 87.7025 83 75 83C62.2975 83 52 72.7025 52 60C52 47.2975 62.2975 37 75 37ZM74.9307 58.4551C72.9209 58.4553 71.9206 61.1047 70.5107 62.5146C69.4507 63.6046 67.6605 64.4055 67.4805 65.8955C67.3508 66.9754 68.0412 68.2747 69.041 68.7646C70.8009 69.6546 72.9407 67.8849 74.9307 67.8848C76.9207 67.8848 79.0411 69.5846 80.8311 68.7646C81.6908 68.3746 82.4108 67.3353 82.3711 66.3955C82.3011 64.7655 80.4508 63.7346 79.3408 62.5146C77.9909 61.0646 76.9305 58.4551 74.9307 58.4551ZM69.541 57.5654C68.731 56.0154 67.181 55.1252 66.041 55.6152C64.941 56.0952 64.6612 57.765 65.4512 59.335C66.2412 60.9049 67.7811 61.7849 68.9111 61.2949C70.0409 60.8048 70.3008 59.1452 69.541 57.5654ZM84.041 55.6152C82.901 55.1252 81.351 56.0154 80.541 57.5654C79.7812 59.1453 80.041 60.8049 81.1709 61.2949C82.3009 61.7849 83.8409 60.905 84.6309 59.335C85.4208 57.765 85.1409 56.0953 84.041 55.6152ZM74.1807 53.915C73.8207 52.1351 72.5706 50.8447 71.3906 51.0146C70.2108 51.2048 69.5413 52.7849 69.9111 54.5547C70.2811 56.3347 71.5409 57.6253 72.7109 57.4453C73.8909 57.2653 74.5407 55.685 74.1807 53.915ZM78.541 51.0146C77.371 50.8446 76.1207 52.135 75.7607 53.915C75.3908 55.6848 76.0407 57.265 77.2305 57.4453C78.4105 57.6253 79.661 56.3347 80.041 54.5547C80.3909 52.7848 79.7309 51.2047 78.541 51.0146Z" fill="white"/>
<path d="M128 37C140.703 37 151 47.2975 151 60C151 72.7025 140.703 83 128 83C115.297 83 105 72.7025 105 60C105 47.2975 115.297 37 128 37ZM127.931 58.4551C125.921 58.4553 124.921 61.1047 123.511 62.5146C122.451 63.6046 120.66 64.4055 120.48 65.8955C120.351 66.9754 121.041 68.2747 122.041 68.7646C123.801 69.6546 125.941 67.8849 127.931 67.8848C129.921 67.8848 132.041 69.5846 133.831 68.7646C134.691 68.3746 135.411 67.3353 135.371 66.3955C135.301 64.7655 133.451 63.7346 132.341 62.5146C130.991 61.0646 129.931 58.4551 127.931 58.4551ZM122.541 57.5654C121.731 56.0154 120.181 55.1252 119.041 55.6152C117.941 56.0952 117.661 57.765 118.451 59.335C119.241 60.9049 120.781 61.7849 121.911 61.2949C123.041 60.8048 123.301 59.1452 122.541 57.5654ZM137.041 55.6152C135.901 55.1252 134.351 56.0154 133.541 57.5654C132.781 59.1453 133.041 60.8049 134.171 61.2949C135.301 61.7849 136.841 60.905 137.631 59.335C138.421 57.765 138.141 56.0953 137.041 55.6152ZM127.181 53.915C126.821 52.1351 125.571 50.8447 124.391 51.0146C123.211 51.2048 122.541 52.7849 122.911 54.5547C123.281 56.3347 124.541 57.6253 125.711 57.4453C126.891 57.2653 127.541 55.685 127.181 53.915ZM131.541 51.0146C130.371 50.8446 129.121 52.135 128.761 53.915C128.391 55.6848 129.041 57.265 130.23 57.4453C131.41 57.6253 132.661 56.3347 133.041 54.5547C133.391 52.7848 132.731 51.2047 131.541 51.0146Z" fill="white"/>
</g>
<defs>
<clipPath id="clip0_1661_18347">
<rect width="350" height="109" fill="white"/>
</clipPath>
<clipPath id="clip1_1661_18347">
<rect width="36" height="44" fill="white" transform="translate(224 54)"/>
</clipPath>
</defs>
</svg>
