<svg width="176" height="60" viewBox="0 0 176 60" fill="none" xmlns="http://www.w3.org/2000/svg">
<g clip-path="url(#clip0_1165_7234)">
<path d="M12.3438 46.55H4.33701C2.87744 46.55 1.66808 45.3407 1.66808 43.8811V22.5297C1.66808 21.0701 2.87744 19.8608 4.33701 19.8608H12.3438C19.725 19.8608 25.6884 25.8242 25.6884 33.2054C25.6884 40.5867 19.725 46.55 12.3438 46.55ZM12.3438 25.1986H7.00594V41.2122H12.3438C16.7642 41.2122 20.3506 37.6258 20.3506 33.2054C20.3506 28.785 16.7642 25.1986 12.3438 25.1986Z" fill="white"/>
<path fill-rule="evenodd" clip-rule="evenodd" d="M1.67188 24.7722H21.4301V42.0986H12.5596C12.5613 40.7013 12.3153 39.0782 12.1027 38.0683C11.7138 36.2211 10.8037 35.3705 10.8037 35.3705L10.2069 34.1309C10.1583 33.7177 10.5277 32.9059 12.3943 32.9643C14.261 33.0226 15.2137 32.1622 15.4568 31.7247C15.803 31.5268 16.0822 30.7251 16.2487 30.0476C16.3276 29.7264 16.3812 29.4332 16.4047 29.2456C16.463 28.7789 16.2346 28.6136 16.113 28.5893C15.7467 28.5987 15.2126 28.5921 14.6547 28.5502C13.9993 28.501 13.3112 28.403 12.8236 28.2248C12.6524 28.1622 12.506 28.0897 12.3943 28.006C12.3024 27.937 12.1975 27.8528 12.0796 27.7579L12.0795 27.7579C11.0749 26.9504 9.11752 25.3771 6.05071 25.9644C3.30909 26.4894 2.47786 28.9053 2.40494 30.0476L2.12265 33.3463C2.12265 33.7838 2.08412 34.3642 1.96745 34.7142C1.95944 34.7383 1.94945 34.7691 1.93743 34.8062L1.93741 34.8063C1.88651 34.9635 1.79922 35.233 1.67188 35.5727V24.7722ZM1.67188 42.0112V42.0986H1.84445C1.78629 42.0695 1.72876 42.0404 1.67188 42.0112Z" fill="white"/>
<g clip-path="url(#clip1_1165_7234)">
<path d="M41.0441 56.3221C36.411 56.3221 31.8652 54.9671 27.9751 52.432C26.9698 51.7764 26.4453 50.6836 26.4453 49.5909C26.4453 47.7988 27.9751 46.1816 29.8546 46.1816C30.5103 46.1816 31.1659 46.3564 31.7341 46.7498C34.4878 48.5419 37.7222 49.5035 41.0441 49.5035C50.4416 49.5035 58.0469 41.8981 58.0469 32.5007C58.0469 25.6384 63.6417 20.0436 70.504 20.0436C73.957 20.0436 77.2352 21.4423 79.5955 23.9337C82.0432 21.3549 85.3651 20.0436 88.687 20.0436C91.7466 20.0436 94.8063 21.18 97.2102 23.4529C99.7454 25.8132 101.144 29.0914 101.144 32.5007V41.5922C101.144 43.4716 99.6142 45.0015 97.7348 45.0015C95.8553 45.0015 94.3255 43.4716 94.3255 41.5922V32.5007C94.3255 29.3973 91.7903 26.8185 88.687 26.8185C85.5399 26.8185 83.0048 29.3973 83.0048 32.5007V41.5922C83.0048 43.4716 81.475 45.0015 79.5955 45.0015C77.716 45.0015 76.1862 43.4716 76.1862 41.5922V32.5007C76.1862 29.3973 73.6511 26.8185 70.504 26.8185C67.4007 26.8185 64.8656 29.3973 64.8656 32.5007C64.8656 45.6571 54.2006 56.3221 41.0441 56.3221ZM41.0441 45.0015C34.1381 45.0015 28.5871 39.4067 28.5871 32.5007V23.4529C28.5871 21.5734 30.0732 20.0436 31.9527 20.0436C33.8321 20.0436 35.362 21.5734 35.362 23.4529V32.5007C35.362 35.6477 37.8971 38.1829 41.0441 38.1829C44.1912 38.1829 46.7263 35.6477 46.7263 32.5007V23.4529C46.7263 21.5734 48.2561 20.0436 50.1356 20.0436C52.0151 20.0436 53.5012 21.5734 53.5012 23.4529V32.5007C53.5012 39.4067 47.9502 45.0015 41.0441 45.0015ZM145.194 45.0015C143.314 45.0015 141.784 43.5154 141.784 41.6359V32.5444C141.784 29.3973 139.249 26.8622 136.146 26.8622C132.999 26.8622 130.464 29.3973 130.464 32.5444V41.6359C130.464 43.5154 128.934 45.0015 127.054 45.0015C125.175 45.0015 123.645 43.5154 123.645 41.6359V32.5444C123.645 29.3973 121.11 26.8622 117.963 26.8622C114.859 26.8622 112.324 29.3973 112.324 32.5444V41.6359C112.324 43.5154 110.795 45.0015 108.915 45.0015C107.036 45.0015 105.506 43.5154 105.506 41.6359V32.5444C105.506 29.0914 106.904 25.8132 109.44 23.4529C111.844 21.18 114.903 20.0873 117.963 20.0873C121.285 20.0873 124.607 21.3986 127.054 23.9774C129.415 21.486 132.693 20.0873 136.146 20.0873C143.008 20.0873 148.603 25.6384 148.603 32.5444V41.6359C148.603 43.5154 147.073 45.0015 145.194 45.0015ZM163.024 47.7988C165.647 47.7988 167.832 46.0068 168.444 43.6028C166.827 44.477 164.991 45.0015 163.024 45.0015C156.861 45.0015 151.835 39.9749 151.835 33.812V25.4198C151.835 23.89 153.102 22.6224 154.632 22.6224C156.162 22.6224 157.429 23.89 157.429 25.4198V33.812C157.429 36.9153 159.921 39.4067 163.024 39.4067C166.127 39.4067 168.619 36.9153 168.619 33.812V25.4198C168.619 23.89 169.886 22.6224 171.416 22.6224C172.946 22.6224 174.214 23.89 174.214 25.4198V42.2041C174.214 48.3671 169.187 53.3936 163.024 53.3936C160.183 53.3936 157.298 52.3009 155.113 50.1154C154.588 49.5909 154.282 48.8916 154.282 48.1485C154.282 46.6624 155.594 45.3511 157.08 45.3511C157.823 45.3511 158.522 45.6571 159.047 46.1816C160.183 47.2743 161.582 47.7988 163.024 47.7988Z" fill="white"/>
<path d="M172.805 21.7897C171.737 21.2451 170.703 21.4594 169.898 21.9026C169.595 22.0697 169.109 21.7419 169.27 21.435C169.78 20.46 170.368 20.0821 171.093 20.0058C171.85 19.9216 172.608 19.7707 173.445 21.2989C173.615 21.6086 173.12 21.9501 172.805 21.7897Z" fill="white" stroke="white" stroke-width="0.318602"/>
<path d="M172.422 19.1671C171.703 18.801 171.009 18.9451 170.468 19.243C170.264 19.3553 169.937 19.1349 170.045 18.9287C170.388 18.2733 170.783 18.0192 171.27 17.9679C171.78 17.9113 172.289 17.8099 172.852 18.8372C172.966 19.0453 172.633 19.2749 172.422 19.1671Z" fill="white" stroke="white" stroke-width="0.214168"/>
</g>
<path d="M27.1455 46.3239C26.0992 46.9102 25.7037 47.8887 25.6254 48.8043C25.5958 49.1493 25.0536 49.3712 24.8875 49.0674C24.3597 48.1019 24.3718 47.4032 24.7108 46.7579C25.0615 46.0809 25.3567 45.367 27.0924 45.5193C27.4442 45.5502 27.4535 46.1513 27.1455 46.3239Z" fill="white" stroke="white" stroke-width="0.318602"/>
<path d="M24.7431 45.1903C24.0398 45.5844 23.7739 46.2421 23.7212 46.8576C23.7014 47.0895 23.3369 47.2387 23.2252 47.0345C22.8704 46.3855 22.8785 45.9158 23.1065 45.482C23.3422 45.027 23.5406 44.547 24.7074 44.6494C24.9439 44.6702 24.9501 45.0742 24.7431 45.1903Z" fill="white" stroke="white" stroke-width="0.214168"/>
</g>
<defs>
<clipPath id="clip0_1165_7234">
<rect width="176" height="59.5786" fill="white"/>
</clipPath>
<clipPath id="clip1_1165_7234">
<rect width="174.594" height="59.5786" fill="white" transform="translate(26.4453 0.000976562)"/>
</clipPath>
</defs>
</svg>
