<svg width="191" height="191" viewBox="0 0 191 191" fill="none" xmlns="http://www.w3.org/2000/svg">
<g style="mix-blend-mode:hard-light" opacity="0.1">
<path d="M82.3322 54.0543C86.5897 53.4409 91.0997 58.0953 92.3986 64.5176C93.6975 70.9039 91.3523 76.6046 87.0948 77.254C82.8734 77.9035 78.3273 73.2491 76.9923 66.8268C75.6573 60.4405 78.0747 54.7398 82.3322 54.0543ZM108.13 54.0543C112.423 54.7398 114.805 60.4405 113.542 66.8268C112.171 73.2491 107.661 77.9035 103.403 77.254C99.1096 76.6046 96.7644 70.9039 98.0993 64.5176C99.3982 58.0953 103.908 53.4409 108.13 54.0543ZM63.0291 70.6513C67.1423 68.8833 72.7348 72.0945 75.6573 77.687C78.3994 83.3877 77.4613 89.3771 73.3842 91.145C69.3071 92.9129 63.7507 89.7379 60.9004 84.0732C58.05 78.4086 59.0603 72.3832 63.0291 70.6513ZM127.974 70.6513C131.943 72.3832 132.953 78.4086 130.103 84.0732C127.252 89.7379 121.696 92.9129 117.619 91.145C113.542 89.3771 112.604 83.3877 115.346 77.687C118.268 72.0945 123.861 68.8833 127.974 70.6513ZM121.949 109.546C122.093 112.938 119.495 116.69 116.392 118.097C109.934 121.056 102.285 114.922 95.1047 114.922C87.9247 114.922 80.2034 121.308 73.8533 118.097C70.2452 116.329 67.7557 111.639 68.2247 107.742C68.8742 102.366 75.3326 99.4796 79.1571 95.5468C84.2444 90.4595 87.8525 80.8981 95.1047 80.8981C102.321 80.8981 106.145 90.3151 111.016 95.5468C115.021 99.9486 121.696 103.665 121.949 109.546Z" fill="#A7581A"/>
</g>
</svg>
