<svg width="22" height="23" viewBox="0 0 22 23" fill="none" xmlns="http://www.w3.org/2000/svg">
<path d="M20.9383 10.6622L11.7483 19.8522C10.6225 20.9781 9.09552 21.6106 7.50334 21.6106C5.91115 21.6106 4.38418 20.9781 3.25834 19.8522C2.13249 18.7264 1.5 17.1994 1.5 15.6072C1.5 14.015 2.13249 12.4881 3.25834 11.3622L12.4483 2.17222C13.1989 1.42166 14.2169 1 15.2783 1C16.3398 1 17.3578 1.42166 18.1083 2.17222C18.8589 2.92279 19.2806 3.94077 19.2806 5.00222C19.2806 6.06368 18.8589 7.08166 18.1083 7.83222L8.90834 17.0222C8.72252 17.208 8.50192 17.3554 8.25913 17.456C8.01634 17.5566 7.75613 17.6083 7.49334 17.6083C7.23055 17.6083 6.97033 17.5566 6.72754 17.456C6.48476 17.3554 6.26416 17.208 6.07834 17.0222C5.89252 16.8364 5.74512 16.6158 5.64455 16.373C5.54398 16.1302 5.49222 15.87 5.49222 15.6072C5.49222 15.3444 5.54398 15.0842 5.64455 14.8414C5.74512 14.5986 5.89252 14.378 6.07834 14.1922L14.5683 5.71222" stroke="#6F3201" stroke-width="1.5" stroke-linecap="round" stroke-linejoin="round"/>
</svg>
