<svg width="14" height="14" viewBox="0 0 14 14" fill="none" xmlns="http://www.w3.org/2000/svg">
<path d="M7.03449 0.791016C7.20425 0.791038 7.36809 0.853361 7.49495 0.966165C7.6218 1.07897 7.70285 1.23441 7.72271 1.40299L7.72756 1.48408V12.5732C7.72736 12.7498 7.65972 12.9197 7.53846 13.0482C7.41719 13.1766 7.25145 13.2539 7.07511 13.2643C6.89876 13.2746 6.72512 13.2173 6.58966 13.1039C6.4542 12.9905 6.36714 12.8297 6.34627 12.6543L6.34142 12.5732V1.48408C6.34142 1.30027 6.41444 1.12399 6.54442 0.994011C6.67439 0.864035 6.85068 0.791016 7.03449 0.791016ZM4.26222 2.87022C4.44603 2.87022 4.62231 2.94324 4.75229 3.07322C4.88227 3.20319 4.95529 3.37948 4.95529 3.56329V10.494C4.95529 10.6778 4.88227 10.8541 4.75229 10.984C4.62231 11.114 4.44603 11.187 4.26222 11.187C4.0784 11.187 3.90212 11.114 3.77214 10.984C3.64217 10.8541 3.56915 10.6778 3.56915 10.494V3.56329C3.56915 3.37948 3.64217 3.20319 3.77214 3.07322C3.90212 2.94324 4.0784 2.87022 4.26222 2.87022ZM9.80676 2.87022C9.99058 2.87022 10.1669 2.94324 10.2968 3.07322C10.4268 3.20319 10.4998 3.37948 10.4998 3.56329V10.494C10.4998 10.6778 10.4268 10.8541 10.2968 10.984C10.1669 11.114 9.99058 11.187 9.80676 11.187C9.62295 11.187 9.44667 11.114 9.31669 10.984C9.18672 10.8541 9.1137 10.6778 9.1137 10.494V3.56329C9.1137 3.37948 9.18672 3.20319 9.31669 3.07322C9.44667 2.94324 9.62295 2.87022 9.80676 2.87022ZM1.48994 4.94943C1.67376 4.94943 1.85004 5.02245 1.98002 5.15242C2.10999 5.2824 2.18301 5.45868 2.18301 5.64249V8.41477C2.18301 8.59858 2.10999 8.77487 1.98002 8.90484C1.85004 9.03482 1.67376 9.10784 1.48994 9.10784C1.30613 9.10784 1.12985 9.03482 0.99987 8.90484C0.869894 8.77487 0.796875 8.59858 0.796875 8.41477V5.64249C0.796875 5.45868 0.869894 5.2824 0.99987 5.15242C1.12985 5.02245 1.30613 4.94943 1.48994 4.94943ZM12.579 4.94943C12.7488 4.94945 12.9126 5.01177 13.0395 5.12458C13.1663 5.23738 13.2474 5.39282 13.2673 5.56141L13.2721 5.64249V8.41477C13.2719 8.59142 13.2043 8.76133 13.083 8.88978C12.9617 9.01823 12.796 9.09552 12.6197 9.10588C12.4433 9.11623 12.2697 9.05886 12.1342 8.94548C11.9987 8.8321 11.9117 8.67127 11.8908 8.49586L11.886 8.41477V5.64249C11.886 5.45868 11.959 5.2824 12.089 5.15242C12.2189 5.02245 12.3952 4.94943 12.579 4.94943Z" fill="#6F3201"/>
</svg>
