<svg width="23" height="20" viewBox="0 0 23 20" fill="none" xmlns="http://www.w3.org/2000/svg">
<path d="M9.278 19H13.722C16.843 19 18.404 19 19.525 18.265C20.0088 17.9482 20.4254 17.5391 20.751 17.061C21.5 15.961 21.5 14.428 21.5 11.364C21.5 8.30005 21.5 6.76705 20.751 5.66705C20.4254 5.18904 20.0088 4.77991 19.525 4.46305C18.805 3.99005 17.903 3.82105 16.522 3.76105C15.863 3.76105 15.296 3.27105 15.167 2.63605C15.0684 2.17092 14.8123 1.75408 14.4418 1.456C14.0714 1.15791 13.6095 0.996855 13.134 1.00005H9.866C8.878 1.00005 8.027 1.68505 7.833 2.63605C7.704 3.27105 7.137 3.76105 6.478 3.76105C5.098 3.82105 4.196 3.99105 3.475 4.46305C2.99154 4.78001 2.57527 5.18914 2.25 5.66705C1.5 6.76705 1.5 8.29905 1.5 11.364C1.5 14.429 1.5 15.96 2.249 17.061C2.573 17.537 2.989 17.946 3.475 18.265C4.596 19 6.157 19 9.278 19Z" stroke="#6F3201" stroke-width="1.5"/>
</svg>
