<svg width="27" height="27" viewBox="0 0 27 27" fill="none" xmlns="http://www.w3.org/2000/svg">
<path d="M10.125 24.75H16.875C22.5 24.75 24.75 22.5 24.75 16.875V10.125C24.75 4.5 22.5 2.25 16.875 2.25H10.125C4.5 2.25 2.25 4.5 2.25 10.125V16.875C2.25 22.5 4.5 24.75 10.125 24.75Z" stroke="white" stroke-width="1.5" stroke-linecap="round" stroke-linejoin="round"/>
<path d="M20.1383 10.1813C17.6858 9.93381 15.2108 9.81006 12.747 9.81006C11.2845 9.81006 9.82203 9.88881 8.37078 10.0351L6.86328 10.1813" stroke="white" stroke-width="1.5" stroke-linecap="round" stroke-linejoin="round"/>
<path d="M10.9238 9.43886L11.0813 8.47136C11.1938 7.77386 11.2838 7.24512 12.5326 7.24512H14.4676C15.7163 7.24512 15.8063 7.79636 15.9188 8.47136L16.0763 9.42762" stroke="white" stroke-width="1.5" stroke-linecap="round" stroke-linejoin="round"/>
<path d="M18.5513 10.2715L18.0675 17.6965C17.9887 18.8552 17.9213 19.7552 15.8625 19.7552H11.1262C9.0675 19.7552 8.99999 18.8552 8.92124 17.6965L8.4375 10.2715" stroke="white" stroke-width="1.5" stroke-linecap="round" stroke-linejoin="round"/>
</svg>
