<svg width="24" height="24" viewBox="0 0 24 24" fill="none" xmlns="http://www.w3.org/2000/svg">
<path d="M15.0359 12.5665C14.2155 11.7895 13.1284 11.3564 11.9985 11.3564C10.8685 11.3564 9.78142 11.7895 8.96095 12.5665L5.2972 16.0315C3.1972 17.9402 4.7122 21.589 7.5472 21.4465C9.0847 21.4052 10.3335 20.6177 11.9947 20.6477C13.716 20.6177 14.9947 21.3115 16.5397 21.4465C19.326 21.5102 20.766 17.9027 18.696 16.0315L15.0359 12.5665ZM18.7485 19.1927C18.5699 19.6491 18.2537 20.0387 17.8439 20.3075C17.434 20.5762 16.9507 20.7109 16.461 20.6927C15.0172 20.4827 13.746 19.8752 11.9985 19.8977C10.251 19.9202 8.99845 20.6477 7.45345 20.6965C6.97366 20.6999 6.50402 20.5584 6.10607 20.2904C5.70811 20.0223 5.4004 19.6403 5.22325 19.1945C5.04611 18.7486 5.0078 18.2595 5.11334 17.7915C5.21887 17.3234 5.46334 16.8982 5.8147 16.5715L9.4747 13.1252C10.1569 12.4807 11.0599 12.1216 11.9985 12.1216C12.937 12.1216 13.84 12.4807 14.5222 13.1252L18.1822 16.5902C18.5282 16.9162 18.7675 17.3392 18.8686 17.8037C18.9696 18.2682 18.9278 18.7525 18.7485 19.1927Z" fill="#A7581A"/>
<path d="M18.7485 19.1927C18.5699 19.6491 18.2537 20.0387 17.8439 20.3075C17.434 20.5762 16.9507 20.7109 16.461 20.6927C15.0172 20.4827 13.746 19.8752 11.9985 19.8977C10.251 19.9202 8.99845 20.6477 7.45345 20.6965C6.97366 20.6999 6.50402 20.5584 6.10607 20.2904C5.70811 20.0223 5.4004 19.6403 5.22325 19.1945C5.04611 18.7486 5.0078 18.2595 5.11334 17.7915C5.21887 17.3234 5.46334 16.8982 5.8147 16.5715L9.4747 13.1252C10.1569 12.4807 11.0599 12.1216 11.9985 12.1216C12.937 12.1216 13.84 12.4807 14.5222 13.1252L18.1822 16.5902C18.5282 16.9162 18.7675 17.3392 18.8686 17.8037C18.9696 18.2682 18.9278 18.7525 18.7485 19.1927Z" fill="#A7581A"/>
<path d="M19.1836 13.8494C20.3896 14.2686 21.8469 13.2385 22.4316 11.5564C23.7187 7.46481 19.5865 6.0284 18.0614 10.0373C17.4767 11.7193 17.9808 13.4313 19.1836 13.8494ZM21.0278 8.54419C22.0317 8.97181 22.0911 10.2179 21.7079 11.3048C21.3282 12.3815 20.5156 13.3024 19.4727 13.0178C18.4781 12.5942 18.4581 11.3838 18.8286 10.3039C19.2026 9.21384 19.9766 8.25743 21.0278 8.54419Z" fill="#A7581A"/>
<path d="M21.0278 8.54419C22.0317 8.97181 22.0911 10.2179 21.7079 11.3048C21.3282 12.3815 20.5156 13.3024 19.4727 13.0178C18.4781 12.5942 18.4581 11.3838 18.8286 10.3039C19.2026 9.21384 19.9766 8.25743 21.0278 8.54419Z" fill="#A7581A"/>
<path d="M15.2714 9.76852C16.6964 9.76852 17.8552 8.14852 17.8552 6.16102C17.7127 1.37602 12.8302 1.37602 12.6914 6.16102C12.6914 8.14852 13.8502 9.76852 15.2714 9.76852ZM15.2714 3.5C16.4865 3.58289 17.0057 4.8748 17 6.16102C16.9943 7.43519 16.4751 8.70378 15.2714 8.7859C14.0677 8.70378 13.6031 7.43519 13.5979 6.16102C13.5927 4.8748 14.0582 3.58289 15.2714 3.5Z" fill="#A7581A"/>
<path d="M15.2714 3.5C16.4865 3.58289 17.0057 4.8748 17 6.16102C16.9943 7.43519 16.4751 8.70378 15.2714 8.7859C14.0677 8.70378 13.6031 7.43519 13.5979 6.16102C13.5927 4.8748 14.0582 3.58289 15.2714 3.5Z" fill="#A7581A"/>
<path d="M4.3008 13.8503C5.5068 13.431 6.01083 11.719 5.42606 10.037C3.89761 6.02927 -0.234537 7.46581 1.05589 11.5563C1.64066 13.2383 3.09797 14.2684 4.3008 13.8503ZM2.45646 8.54511C3.50918 8.25776 4.32873 9.19835 4.70233 10.2886C5.07243 11.3686 5.00623 12.595 4.01169 13.0187C2.96883 13.3033 2.20237 12.3664 1.82309 11.2895C1.44022 10.2025 1.45411 8.9722 2.45646 8.54511Z" fill="#A7581A"/>
<path d="M2.45646 8.54511C3.50918 8.25776 4.32873 9.19835 4.70233 10.2886C5.07243 11.3686 5.00623 12.595 4.01169 13.0187C2.96883 13.3033 2.20237 12.3664 1.82309 11.2895C1.44022 10.2025 1.45411 8.9722 2.45646 8.54511Z" fill="#A7581A"/>
<path d="M9.00844 10.3385C10.4309 10.2527 11.49 8.5659 11.3704 6.582C10.9401 1.81425 6.0665 2.10811 6.216 6.89279C6.33562 8.87669 7.58977 10.424 9.00844 10.3385ZM8.63116 4.08132C9.84901 4.09092 10.4451 5.34924 10.5168 6.63347C10.5878 7.90568 10.1459 9.20322 8.9493 9.35763C7.74286 9.34811 7.20274 8.10978 7.12087 6.83823C7.03822 5.55466 7.42517 4.23707 8.63116 4.08132Z" fill="#A7581A"/>
<path d="M8.63116 4.08132C9.84901 4.09092 10.4451 5.34924 10.5168 6.63347C10.5878 7.90568 10.1459 9.20322 8.9493 9.35763C7.74286 9.34811 7.20274 8.10978 7.12087 6.83823C7.03822 5.55466 7.42517 4.23707 8.63116 4.08132Z" fill="#A7581A"/>
</svg>
