<svg width="41" height="41" viewBox="0 0 41 41" fill="none" xmlns="http://www.w3.org/2000/svg">
<path fill-rule="evenodd" clip-rule="evenodd" d="M18.4562 15.4113C18.4333 15.4008 18.4119 15.3954 18.3922 15.3954C11.3982 15.5608 5.83594 16.7198 5.83594 18.2579L6.01139 23.0244C3.06703 21.6778 1.03125 18.7874 1.03125 15.4391C1.03125 10.8042 4.93197 7.04688 9.74375 7.04688C14.5459 7.04688 18.4406 10.7892 18.4562 15.4113Z" fill="#A7581A"/>
<path fill-rule="evenodd" clip-rule="evenodd" d="M33.9578 29.1487L34.5307 18.5819C34.5331 18.5594 34.5344 18.5369 34.5344 18.5143C34.5344 18.112 33.5402 17.5182 32.5233 17.1274C36.7399 17.7138 39.9797 21.209 39.9797 25.433C39.9797 30.0679 36.079 33.8252 31.2672 33.8252C28.5623 33.8252 26.1453 32.6379 24.5472 30.7748C27.9913 30.5015 31.292 29.9441 33.9578 29.1487Z" fill="#A7581A"/>
<path d="M34.5281 18.5144L33.9516 29.1488C26.0078 31.5191 12.4266 31.7754 6.2125 28.7004L5.82812 18.2582M34.5281 18.5144C34.5281 17.7522 30.9597 16.3025 30.4281 16.8488M34.5281 18.5144C34.5281 19.091 33.7311 19.6143 32.3653 20.0519M5.82812 18.2582C5.82812 16.5953 12.3303 15.3754 20.1141 15.3754C20.9185 15.3754 21.7728 15.384 22.5466 15.4141C22.8313 15.9551 23.0235 16.2559 23.4396 16.7847M5.82812 18.2582C5.82812 18.9657 7.00527 19.6394 8.95741 20.18M5.82812 18.2582C5.92334 18.7801 6.17808 19.0275 6.8907 19.4113M6.8907 19.4113C6.8907 17.7484 14.4708 16.5285 23.4396 16.7847M6.8907 19.4113C7.64286 19.777 8.0909 19.9513 8.95741 20.18M23.4396 16.7847L24.6625 18.066M22.8687 21.3454C26.8251 21.1948 30.2667 20.7244 32.3653 20.0519M16.2703 21.2749C13.3634 21.0867 10.811 20.6934 8.95741 20.18M8.95741 20.18C8.95741 20.18 9.96357 18.713 10.8891 18.7066C11.3956 18.7031 11.6713 19.1321 12.1703 19.2191C12.7623 19.3224 13.2344 19.3597 13.7719 19.091C14.4125 18.7707 14.4589 17.8733 15.5016 18.1941C16.3344 18.4504 15.5016 19.091 16.4625 18.9629C17.9545 18.7639 18.3203 18.0019 19.7937 18.0019C20.2743 18.0019 20.343 18.6386 20.8187 18.7066C21.0397 18.7382 21.5914 18.3595 22.4844 18.1941C23.4041 18.0237 24.6625 18.066 24.6625 18.066M24.6625 18.066C24.6625 18.066 20.4984 14.6707 22.3562 10.8269C22.9729 9.55113 23.3887 8.34247 24.7906 8.1363C25.9366 7.96776 27.26 8.17165 28.3781 8.69199M24.6625 18.066C26.4562 19.8597 29.1735 20.1791 32.3307 19.9685M18.6406 19.9879C18.6406 19.9879 19.2094 19.1832 19.7937 19.4754C20.05 19.6035 19.9859 19.9879 20.4984 20.0519C21.1015 20.1273 21.6516 19.8597 21.6516 19.8597M30.4281 16.8488C29.7875 13.9019 31.4531 12.8128 30.6203 10.8269C30.2257 9.88588 29.3851 9.1606 28.3781 8.69199M30.4281 16.8488C30.8181 18.6425 31.08 19.0644 32.3307 19.9685M32.3653 20.0519L32.3307 19.9685M28.3781 8.69199C28.3781 8.69199 30.3619 7.85971 31.7094 7.75191C33.3109 7.62378 34.2741 7.80232 34.0156 8.69199C33.8234 9.35347 33.2469 9.16128 32.0937 9.16128C30.6312 9.16128 28.3781 8.69199 28.3781 8.69199ZM25.7516 16.3363C25.7516 16.3363 24.9828 15.0048 24.9828 13.5816C24.9828 13.0691 25.2469 11.3509 25.9437 11.2753C26.7018 11.1932 27.3362 11.872 27.4812 12.6207C27.5674 13.0655 27.2891 13.9019 27.2891 13.9019M7.49375 25.1128C7.41862 25.3939 7.41607 25.6392 7.49375 26.266M9.99219 25.4332C10.074 25.8641 10.0512 26.1026 9.86406 26.5222M8.2625 27.0347C8.1925 27.4562 8.20078 27.6612 8.2625 27.9957M31.6453 22.8707C31.5691 23.3039 31.5648 23.5681 31.6453 24.0878M32.6062 21.3454C32.6753 21.8118 32.668 22.0427 32.6062 22.4222M4.54688 13.8378C5.21928 14.0934 5.56173 14.2939 6.08437 14.7988M6.66094 11.1472C7.17312 11.815 7.3994 12.2069 7.68594 12.941M10.1844 11.5316C10.1127 12.3293 10.1082 12.7531 10.1844 13.4535M17.4234 25.4332C17.4234 25.4332 16.8396 24.4987 16.2703 24.5363C15.6691 24.576 15.1567 25.0934 15.2453 25.6894C15.33 26.2591 16.4625 26.33 16.4625 26.5222C16.4625 26.7144 15.2453 26.8775 15.2453 27.4832C15.2453 28.0888 15.8569 28.4363 16.4625 28.4441C17.2063 28.4537 17.7437 27.0347 17.7437 27.0347H22.5484C22.5484 27.0347 23.2038 28.2409 23.8937 28.1878C24.5287 28.139 25.1718 27.6592 25.0469 27.0347C24.9407 26.504 23.8937 26.5222 23.8937 26.266C23.8937 26.0097 24.9443 25.9791 25.0469 25.4332C25.142 24.9269 24.8766 24.4902 24.4062 24.28C23.721 23.9739 22.8687 25.4332 22.8687 25.4332H17.4234Z" stroke="black" stroke-width="0.640625" stroke-linecap="round"/>
</svg>
