<svg width="32" height="14" viewBox="0 0 32 14" fill="none" xmlns="http://www.w3.org/2000/svg">
<g clip-path="url(#paint0_diamond_1165_7984_clip_path)" data-figma-skip-parse="true"><g transform="matrix(0.0228772 0.00593667 -0.0138884 0.0532411 8.5614 7.61728)"><rect x="0" y="0" width="1029.84" height="245.547" fill="url(#paint0_diamond_1165_7984)" opacity="1" shape-rendering="crispEdges"/><rect x="0" y="0" width="1029.84" height="245.547" transform="scale(1 -1)" fill="url(#paint0_diamond_1165_7984)" opacity="1" shape-rendering="crispEdges"/><rect x="0" y="0" width="1029.84" height="245.547" transform="scale(-1 1)" fill="url(#paint0_diamond_1165_7984)" opacity="1" shape-rendering="crispEdges"/><rect x="0" y="0" width="1029.84" height="245.547" transform="scale(-1)" fill="url(#paint0_diamond_1165_7984)" opacity="1" shape-rendering="crispEdges"/></g></g><rect y="0.280762" width="31.4386" height="13.4386" rx="6.7193" data-figma-gradient-fill="{&#34;type&#34;:&#34;GRADIENT_DIAMOND&#34;,&#34;stops&#34;:[{&#34;color&#34;:{&#34;r&#34;:1.0,&#34;g&#34;:0.7294117808341980,&#34;b&#34;:0.38039216399192810,&#34;a&#34;:1.0},&#34;position&#34;:0.0},{&#34;color&#34;:{&#34;r&#34;:0.83387273550033569,&#34;g&#34;:0.60823655128479004,&#34;b&#34;:0.29311710596084595,&#34;a&#34;:1.0},&#34;position&#34;:0.93372535705566406},{&#34;color&#34;:{&#34;r&#34;:0.82967758178710938,&#34;g&#34;:0.60517656803131104,&#34;b&#34;:0.29091319441795349,&#34;a&#34;:1.0},&#34;position&#34;:0.95730435848236084},{&#34;color&#34;:{&#34;r&#34;:0.82660454511642456,&#34;g&#34;:0.60293507575988770,&#34;b&#34;:0.28929877281188965,&#34;a&#34;:1.0},&#34;position&#34;:0.97457641363143921},{&#34;color&#34;:{&#34;r&#34;:0.82208120822906494,&#34;g&#34;:0.59963572025299072,&#34;b&#34;:0.28692245483398438,&#34;a&#34;:1.0},&#34;position&#34;:1.0}],&#34;stopsVar&#34;:[{&#34;color&#34;:{&#34;r&#34;:1.0,&#34;g&#34;:0.7294117808341980,&#34;b&#34;:0.38039216399192810,&#34;a&#34;:1.0},&#34;position&#34;:0.0},{&#34;color&#34;:{&#34;r&#34;:0.83387273550033569,&#34;g&#34;:0.60823655128479004,&#34;b&#34;:0.29311710596084595,&#34;a&#34;:1.0},&#34;position&#34;:0.93372535705566406},{&#34;color&#34;:{&#34;r&#34;:0.82967758178710938,&#34;g&#34;:0.60517656803131104,&#34;b&#34;:0.29091319441795349,&#34;a&#34;:1.0},&#34;position&#34;:0.95730435848236084},{&#34;color&#34;:{&#34;r&#34;:0.82660454511642456,&#34;g&#34;:0.60293507575988770,&#34;b&#34;:0.28929877281188965,&#34;a&#34;:1.0},&#34;position&#34;:0.97457641363143921},{&#34;color&#34;:{&#34;r&#34;:0.82208120822906494,&#34;g&#34;:0.59963572025299072,&#34;b&#34;:0.28692245483398438,&#34;a&#34;:1.0},&#34;position&#34;:1.0}],&#34;transform&#34;:{&#34;m00&#34;:45.754386901855469,&#34;m01&#34;:-27.776771545410156,&#34;m02&#34;:-0.42740461230278015,&#34;m10&#34;:11.873331069946289,&#34;m11&#34;:106.48221588134766,&#34;m12&#34;:-51.560493469238281},&#34;opacity&#34;:1.0,&#34;blendMode&#34;:&#34;NORMAL&#34;,&#34;visible&#34;:true}"/>
<path d="M3.14258 9V4.40162H4.85382C5.75565 4.40162 6.38024 5.00709 6.38024 5.90892V5.9153C6.38024 6.81394 5.75565 7.42897 4.85382 7.42897H3.85639V9H3.14258ZM4.67537 5.00391H3.85639V6.82987H4.67537C5.29677 6.82987 5.65368 6.49527 5.65368 5.91848V5.91211C5.65368 5.33851 5.29677 5.00391 4.67537 5.00391ZM6.92198 9V5.64762H7.6103V6.22122H7.62623C7.73458 5.82926 8.01501 5.58388 8.39741 5.58388C8.4962 5.58388 8.58224 5.59982 8.63641 5.60938V6.2499C8.58224 6.22759 8.46114 6.21166 8.3273 6.21166C7.88435 6.21166 7.6103 6.50164 7.6103 7.00195V9H6.92198ZM10.3477 9.06692C9.36297 9.06692 8.76706 8.39453 8.76706 7.33655V7.33337C8.76706 6.28495 9.37253 5.58388 10.3126 5.58388C11.2527 5.58388 11.8295 6.25946 11.8295 7.26645V7.49907H9.45539C9.46813 8.13322 9.81548 8.50288 10.3636 8.50288C10.7715 8.50288 11.0424 8.29256 11.1284 8.04081L11.138 8.01532H11.7912L11.7848 8.05037C11.6765 8.58255 11.1603 9.06692 10.3477 9.06692ZM10.3158 6.14792C9.86965 6.14792 9.52549 6.45066 9.46495 7.01151H11.1475C11.0902 6.43154 10.7651 6.14792 10.3158 6.14792ZM12.3648 9V5.64762H13.0531V6.16704H13.0691C13.2125 5.81651 13.5535 5.58388 13.9932 5.58388C14.4553 5.58388 14.7931 5.82288 14.9269 6.24352H14.9428C15.1149 5.83563 15.5101 5.58388 15.9881 5.58388C16.6509 5.58388 17.0843 6.02364 17.0843 6.69603V9H16.3928V6.86174C16.3928 6.42516 16.1602 6.17342 15.7523 6.17342C15.3444 6.17342 15.0608 6.47934 15.0608 6.90317V9H14.3852V6.81075C14.3852 6.42198 14.1398 6.17342 13.751 6.17342C13.3431 6.17342 13.0531 6.49527 13.0531 6.92866V9H12.3648ZM18.1231 5.13137C17.9001 5.13137 17.7216 4.95292 17.7216 4.73623C17.7216 4.51634 17.9001 4.33789 18.1231 4.33789C18.3494 4.33789 18.5247 4.51634 18.5247 4.73623C18.5247 4.95292 18.3494 5.13137 18.1231 5.13137ZM17.779 9V5.64762H18.4673V9H17.779ZM20.3188 9.06692C19.5826 9.06692 19.162 8.59211 19.162 7.82093V5.64762H19.8503V7.68709C19.8503 8.19377 20.0861 8.4742 20.5641 8.4742C21.0485 8.4742 21.3608 8.12685 21.3608 7.60424V5.64762H22.0523V9H21.3608V8.4965H21.3449C21.1696 8.83429 20.8286 9.06692 20.3188 9.06692ZM22.7343 9V5.64762H23.4226V6.16704H23.4385C23.5819 5.81651 23.9229 5.58388 24.3627 5.58388C24.8247 5.58388 25.1625 5.82288 25.2964 6.24352H25.3123C25.4844 5.83563 25.8795 5.58388 26.3575 5.58388C27.0204 5.58388 27.4537 6.02364 27.4537 6.69603V9H26.7622V6.86174C26.7622 6.42516 26.5296 6.17342 26.1217 6.17342C25.7138 6.17342 25.4302 6.47934 25.4302 6.90317V9H24.7546V6.81075C24.7546 6.42198 24.5093 6.17342 24.1205 6.17342C23.7126 6.17342 23.4226 6.49527 23.4226 6.92866V9H22.7343Z" fill="white"/>
<defs>
<clipPath id="paint0_diamond_1165_7984_clip_path"><rect y="0.280762" width="31.4386" height="13.4386" rx="6.7193"/></clipPath><linearGradient id="paint0_diamond_1165_7984" x1="0" y1="0" x2="500" y2="500" gradientUnits="userSpaceOnUse">
<stop stop-color="#FFBA61"/>
<stop offset="0.933725" stop-color="#D59B4B"/>
<stop offset="0.957304" stop-color="#D49A4A"/>
<stop offset="0.974576" stop-color="#D39A4A"/>
<stop offset="1" stop-color="#D29949"/>
</linearGradient>
</defs>
</svg>
