<svg width="10" height="2" viewBox="0 0 10 2" fill="none" xmlns="http://www.w3.org/2000/svg">
<path fill-rule="evenodd" clip-rule="evenodd" d="M0.585938 1.02855C0.585938 0.803933 0.675165 0.588519 0.83399 0.429694C0.992816 0.270868 1.20823 0.181641 1.43284 0.181641C1.65746 0.181641 1.87287 0.270868 2.0317 0.429694C2.19052 0.588519 2.27975 0.803933 2.27975 1.02855C2.27975 1.25316 2.19052 1.46857 2.0317 1.6274C1.87287 1.78622 1.65746 1.87545 1.43284 1.87545C1.20823 1.87545 0.992816 1.78622 0.83399 1.6274C0.675165 1.46857 0.585938 1.25316 0.585938 1.02855ZM3.97356 1.02855C3.97356 0.803933 4.06279 0.588519 4.22161 0.429694C4.38044 0.270868 4.59585 0.181641 4.82047 0.181641C5.04508 0.181641 5.26049 0.270868 5.41932 0.429694C5.57814 0.588519 5.66737 0.803933 5.66737 1.02855C5.66737 1.25316 5.57814 1.46857 5.41932 1.6274C5.26049 1.78622 5.04508 1.87545 4.82047 1.87545C4.59585 1.87545 4.38044 1.78622 4.22161 1.6274C4.06279 1.46857 3.97356 1.25316 3.97356 1.02855ZM7.35271 1.02855C7.35271 0.803933 7.44194 0.588519 7.60077 0.429694C7.75959 0.270868 7.97501 0.181641 8.19962 0.181641C8.42423 0.181641 8.63965 0.270868 8.79847 0.429694C8.9573 0.588519 9.04653 0.803933 9.04653 1.02855C9.04653 1.25316 8.9573 1.46857 8.79847 1.6274C8.63965 1.78622 8.42423 1.87545 8.19962 1.87545C7.97501 1.87545 7.75959 1.78622 7.60077 1.6274C7.44194 1.46857 7.35271 1.25316 7.35271 1.02855Z" fill="#6F3201"/>
</svg>
