<svg width="27" height="27" viewBox="0 0 27 27" fill="none" xmlns="http://www.w3.org/2000/svg">
<path d="M10.125 13.5C10.125 14.2459 9.82868 14.9613 9.30124 15.4887C8.77379 16.0162 8.05842 16.3125 7.3125 16.3125C6.56658 16.3125 5.85121 16.0162 5.32376 15.4887C4.79632 14.9613 4.5 14.2459 4.5 13.5C4.5 12.7541 4.79632 12.0387 5.32376 11.5113C5.85121 10.9838 6.56658 10.6875 7.3125 10.6875C8.05842 10.6875 8.77379 10.9838 9.30124 11.5113C9.82868 12.0387 10.125 12.7541 10.125 13.5Z" stroke="white" stroke-width="1.5"/>
<path d="M15.75 7.3125L10.125 11.25M15.75 19.6875L10.125 15.75" stroke="white" stroke-width="1.5" stroke-linecap="round"/>
<path d="M21.375 20.8125C21.375 21.5584 21.0787 22.2738 20.5512 22.8012C20.0238 23.3287 19.3084 23.625 18.5625 23.625C17.8166 23.625 17.1012 23.3287 16.5738 22.8012C16.0463 22.2738 15.75 21.5584 15.75 20.8125C15.75 20.0666 16.0463 19.3512 16.5738 18.8238C17.1012 18.2963 17.8166 18 18.5625 18C19.3084 18 20.0238 18.2963 20.5512 18.8238C21.0787 19.3512 21.375 20.0666 21.375 20.8125ZM21.375 6.1875C21.375 6.93342 21.0787 7.64879 20.5512 8.17624C20.0238 8.70368 19.3084 9 18.5625 9C17.8166 9 17.1012 8.70368 16.5738 8.17624C16.0463 7.64879 15.75 6.93342 15.75 6.1875C15.75 5.44158 16.0463 4.72621 16.5738 4.19876C17.1012 3.67132 17.8166 3.375 18.5625 3.375C19.3084 3.375 20.0238 3.67132 20.5512 4.19876C21.0787 4.72621 21.375 5.44158 21.375 6.1875Z" stroke="white" stroke-width="1.5"/>
</svg>
